<mxfile host="app.diagrams.net" agent="Mozilla/5.0 (Macintosh; Intel Mac OS X 10_15_7) AppleWebKit/537.36 (KHTML, like Gecko) Chrome/135.0.0.0 Safari/537.36 Edg/135.0.0.0" version="26.2.15">
  <diagram name="Page-1" id="xGvi_Xf9ScYj-FBFpZLW">
    <mxGraphModel dx="3092" dy="1732" grid="1" gridSize="10" guides="1" tooltips="1" connect="1" arrows="1" fold="1" page="1" pageScale="1" pageWidth="827" pageHeight="1169" math="0" shadow="0">
      <root>
        <mxCell id="0" />
        <mxCell id="1" parent="0" />
        <mxCell id="vbWyCh6vEYtz1oXrbSgX-2" value="" style="edgeStyle=orthogonalEdgeStyle;rounded=0;hachureGap=4;orthogonalLoop=1;jettySize=auto;html=1;fontFamily=Architects Daughter;fontSource=https%3A%2F%2Ffonts.googleapis.com%2Fcss%3Ffamily%3DArchitects%2BDaughter;fillColor=#dae8fc;strokeColor=#6c8ebf;" parent="1" source="L96SvbtkJCKNBglRN6S2-1" target="vbWyCh6vEYtz1oXrbSgX-1" edge="1">
          <mxGeometry relative="1" as="geometry">
            <Array as="points">
              <mxPoint x="377" y="130" />
              <mxPoint x="377" y="130" />
            </Array>
          </mxGeometry>
        </mxCell>
        <mxCell id="L96SvbtkJCKNBglRN6S2-1" value="&lt;div&gt;Potential records identified through database searching&lt;/div&gt;&lt;div&gt;(Record identified from Embase N= 756,&lt;/div&gt;&lt;div&gt;&amp;nbsp;Web of science N= 1239, and PubMed N= 441)&lt;/div&gt;&lt;div&gt;Total N = 2436&lt;/div&gt;" style="rounded=1;whiteSpace=wrap;html=1;hachureGap=4;fontFamily=Times New Roman;fillColor=#dae8fc;strokeColor=#6c8ebf;shadow=1;fontSize=13;" parent="1" vertex="1">
          <mxGeometry x="248" y="20" width="429" height="80" as="geometry" />
        </mxCell>
        <mxCell id="ItcVTix3tJ5PriOgSNzR-7" style="edgeStyle=orthogonalEdgeStyle;rounded=1;hachureGap=4;orthogonalLoop=1;jettySize=auto;html=1;fontFamily=Architects Daughter;fontSource=https%3A%2F%2Ffonts.googleapis.com%2Fcss%3Ffamily%3DArchitects%2BDaughter;curved=0;shadow=1;fillColor=#dae8fc;strokeColor=#6c8ebf;" edge="1" parent="1" source="vbWyCh6vEYtz1oXrbSgX-1" target="ItcVTix3tJ5PriOgSNzR-1">
          <mxGeometry relative="1" as="geometry" />
        </mxCell>
        <mxCell id="ItcVTix3tJ5PriOgSNzR-8" style="edgeStyle=orthogonalEdgeStyle;rounded=0;hachureGap=4;orthogonalLoop=1;jettySize=auto;html=1;entryX=0;entryY=0.5;entryDx=0;entryDy=0;fontFamily=Architects Daughter;fontSource=https%3A%2F%2Ffonts.googleapis.com%2Fcss%3Ffamily%3DArchitects%2BDaughter;curved=1;fillColor=#dae8fc;strokeColor=#6c8ebf;shadow=1;" edge="1" parent="1" source="vbWyCh6vEYtz1oXrbSgX-1" target="ItcVTix3tJ5PriOgSNzR-4">
          <mxGeometry relative="1" as="geometry" />
        </mxCell>
        <mxCell id="vbWyCh6vEYtz1oXrbSgX-1" value="&lt;div&gt;Titles and abstracts screened&lt;/div&gt;&lt;div&gt;N = 1542&lt;/div&gt;" style="whiteSpace=wrap;html=1;fontSize=13;fontFamily=Times New Roman;fillColor=#dae8fc;strokeColor=#6c8ebf;rounded=1;hachureGap=4;shadow=1;" parent="1" vertex="1">
          <mxGeometry x="247" y="241" width="260" height="60" as="geometry" />
        </mxCell>
        <mxCell id="vbWyCh6vEYtz1oXrbSgX-3" value="Records remove before screening: Duplicate remove, N= 894" style="whiteSpace=wrap;html=1;fontSize=13;fontFamily=Times New Roman;fillColor=#dae8fc;strokeColor=#6c8ebf;rounded=1;hachureGap=4;shadow=1;align=left;spacing=26;spacingRight=0;spacingBottom=2;verticalAlign=middle;" parent="1" vertex="1">
          <mxGeometry x="428" y="137" width="250" height="70" as="geometry" />
        </mxCell>
        <mxCell id="vbWyCh6vEYtz1oXrbSgX-4" style="edgeStyle=orthogonalEdgeStyle;rounded=0;hachureGap=4;orthogonalLoop=1;jettySize=auto;html=1;entryX=0;entryY=0.5;entryDx=0;entryDy=0;fontFamily=Architects Daughter;fontSource=https%3A%2F%2Ffonts.googleapis.com%2Fcss%3Ffamily%3DArchitects%2BDaughter;fillColor=#dae8fc;strokeColor=#6c8ebf;shadow=1;curved=1;" parent="1" source="L96SvbtkJCKNBglRN6S2-1" target="vbWyCh6vEYtz1oXrbSgX-3" edge="1">
          <mxGeometry relative="1" as="geometry">
            <Array as="points">
              <mxPoint x="378" y="172" />
            </Array>
          </mxGeometry>
        </mxCell>
        <mxCell id="ItcVTix3tJ5PriOgSNzR-9" style="edgeStyle=orthogonalEdgeStyle;rounded=1;hachureGap=4;orthogonalLoop=1;jettySize=auto;html=1;entryX=0.5;entryY=0;entryDx=0;entryDy=0;fontFamily=Architects Daughter;fontSource=https%3A%2F%2Ffonts.googleapis.com%2Fcss%3Ffamily%3DArchitects%2BDaughter;fillColor=#dae8fc;strokeColor=#6c8ebf;curved=0;shadow=1;" edge="1" parent="1" source="ItcVTix3tJ5PriOgSNzR-1" target="ItcVTix3tJ5PriOgSNzR-2">
          <mxGeometry relative="1" as="geometry" />
        </mxCell>
        <mxCell id="ItcVTix3tJ5PriOgSNzR-10" style="edgeStyle=orthogonalEdgeStyle;rounded=0;hachureGap=4;orthogonalLoop=1;jettySize=auto;html=1;entryX=0;entryY=0.5;entryDx=0;entryDy=0;fontFamily=Architects Daughter;fontSource=https%3A%2F%2Ffonts.googleapis.com%2Fcss%3Ffamily%3DArchitects%2BDaughter;fillColor=#dae8fc;strokeColor=#6c8ebf;curved=1;shadow=1;" edge="1" parent="1" source="ItcVTix3tJ5PriOgSNzR-1" target="ItcVTix3tJ5PriOgSNzR-5">
          <mxGeometry relative="1" as="geometry" />
        </mxCell>
        <mxCell id="ItcVTix3tJ5PriOgSNzR-1" value="&lt;div&gt;Records sought for retrieval&amp;nbsp;&lt;/div&gt;&lt;div&gt;N= 118&lt;/div&gt;" style="whiteSpace=wrap;html=1;fontSize=13;fontFamily=Times New Roman;fillColor=#dae8fc;strokeColor=#6c8ebf;rounded=1;hachureGap=4;shadow=1;" vertex="1" parent="1">
          <mxGeometry x="247" y="440" width="260" height="60" as="geometry" />
        </mxCell>
        <mxCell id="ItcVTix3tJ5PriOgSNzR-12" style="edgeStyle=orthogonalEdgeStyle;rounded=0;hachureGap=4;orthogonalLoop=1;jettySize=auto;html=1;entryX=0;entryY=0.5;entryDx=0;entryDy=0;fontFamily=Architects Daughter;fontSource=https%3A%2F%2Ffonts.googleapis.com%2Fcss%3Ffamily%3DArchitects%2BDaughter;curved=1;fillColor=#dae8fc;strokeColor=#6c8ebf;shadow=1;" edge="1" parent="1" source="ItcVTix3tJ5PriOgSNzR-2" target="ItcVTix3tJ5PriOgSNzR-6">
          <mxGeometry relative="1" as="geometry" />
        </mxCell>
        <mxCell id="ItcVTix3tJ5PriOgSNzR-2" value="&lt;div&gt;Full-text articles screened&amp;nbsp;&lt;/div&gt;&lt;div&gt;N= 96&lt;/div&gt;" style="whiteSpace=wrap;html=1;fontSize=13;fontFamily=Times New Roman;fillColor=#dae8fc;strokeColor=#6c8ebf;rounded=1;hachureGap=4;shadow=1;" vertex="1" parent="1">
          <mxGeometry x="247" y="640" width="260" height="60" as="geometry" />
        </mxCell>
        <mxCell id="ItcVTix3tJ5PriOgSNzR-3" value="&lt;div&gt;&lt;b&gt;&amp;nbsp; &amp;nbsp;Report of include N= 21&lt;/b&gt;&lt;/div&gt;&lt;div&gt;&lt;span style=&quot;background-color: transparent; color: light-dark(rgb(0, 0, 0), rgb(255, 255, 255));&quot;&gt;1. &lt;/span&gt;&lt;span style=&quot;background-color: transparent; color: light-dark(rgb(0, 0, 0), rgb(255, 255, 255));&quot;&gt;RCT, N= 5&lt;/span&gt;&lt;/div&gt;&lt;div&gt;&amp;nbsp; &amp;nbsp; &amp;nbsp; &amp;nbsp; &amp;nbsp; &amp;nbsp; &amp;nbsp; &amp;nbsp; &amp;nbsp; &amp;nbsp; &amp;nbsp; 2. Prospective Study, N= 2&lt;/div&gt;&lt;div&gt;&amp;nbsp; &amp;nbsp; &amp;nbsp; &amp;nbsp; &amp;nbsp; &amp;nbsp; &amp;nbsp; &amp;nbsp; 3. Retrospective, N= 3&lt;/div&gt;&lt;div&gt;&amp;nbsp; &amp;nbsp; &amp;nbsp; &amp;nbsp; &amp;nbsp; &amp;nbsp; &amp;nbsp; &amp;nbsp; &amp;nbsp; &amp;nbsp; &amp;nbsp; &amp;nbsp; &amp;nbsp; &amp;nbsp; &amp;nbsp; &amp;nbsp; &amp;nbsp;4. Prospective single-arm, N= 11&lt;/div&gt;" style="whiteSpace=wrap;html=1;fontSize=13;fontFamily=Times New Roman;fillColor=#dae8fc;strokeColor=#6c8ebf;rounded=1;hachureGap=4;shadow=1;align=center;spacing=4;spacingRight=51;" vertex="1" parent="1">
          <mxGeometry x="248" y="950" width="430" height="100" as="geometry" />
        </mxCell>
        <mxCell id="ItcVTix3tJ5PriOgSNzR-4" value="Records exclude, N = 1424" style="whiteSpace=wrap;html=1;fontSize=13;fontFamily=Times New Roman;fillColor=#dae8fc;strokeColor=#6c8ebf;rounded=1;hachureGap=4;shadow=1;align=center;spacing=26;spacingRight=0;spacingBottom=2;verticalAlign=middle;" vertex="1" parent="1">
          <mxGeometry x="427" y="340" width="250" height="70" as="geometry" />
        </mxCell>
        <mxCell id="ItcVTix3tJ5PriOgSNzR-5" value="Records no retrieved, N= 22" style="whiteSpace=wrap;html=1;fontSize=13;fontFamily=Times New Roman;fillColor=#dae8fc;strokeColor=#6c8ebf;rounded=1;hachureGap=4;shadow=1;align=center;spacing=26;spacingRight=0;spacingBottom=2;verticalAlign=middle;" vertex="1" parent="1">
          <mxGeometry x="427" y="540" width="250" height="70" as="geometry" />
        </mxCell>
        <mxCell id="ItcVTix3tJ5PriOgSNzR-6" value="&lt;div&gt;&lt;b&gt;Records excluded: N= 75&lt;/b&gt;&lt;/div&gt;&lt;div&gt;1.&lt;span style=&quot;white-space:pre&quot;&gt;&#x9;&lt;/span&gt;Cell or animal, N= 2&lt;/div&gt;&lt;div&gt;2.&lt;span style=&quot;white-space:pre&quot;&gt;&#x9;&lt;/span&gt;Case series or report, N = 6&lt;/div&gt;&lt;div&gt;3.&lt;span style=&quot;white-space:pre&quot;&gt;&#x9;&lt;/span&gt;Review, N= 17&lt;/div&gt;&lt;div&gt;4.&lt;span style=&quot;white-space:pre&quot;&gt;&#x9;&lt;/span&gt; Systematic review and&amp;nbsp;&lt;/div&gt;&lt;div&gt;Meta-analysis, N= 6&lt;/div&gt;&lt;div&gt;5.&lt;span style=&quot;white-space:pre&quot;&gt;&#x9;&lt;/span&gt;Intervention and comparisons&amp;nbsp;&lt;/div&gt;&lt;div&gt;between two group does not meet the inclusion criteria, N= 20&lt;/div&gt;&lt;div&gt;6.&lt;span style=&quot;white-space: pre;&quot;&gt;&#x9;&lt;/span&gt;Conference abstracts, N = 24&lt;/div&gt;" style="whiteSpace=wrap;html=1;fontSize=13;fontFamily=Times New Roman;fillColor=#dae8fc;strokeColor=#6c8ebf;rounded=1;hachureGap=4;shadow=1;align=left;spacing=26;spacingRight=0;spacingBottom=2;verticalAlign=middle;" vertex="1" parent="1">
          <mxGeometry x="427" y="740" width="250" height="170" as="geometry" />
        </mxCell>
        <mxCell id="ItcVTix3tJ5PriOgSNzR-11" style="edgeStyle=orthogonalEdgeStyle;rounded=1;hachureGap=4;orthogonalLoop=1;jettySize=auto;html=1;fontFamily=Architects Daughter;fontSource=https%3A%2F%2Ffonts.googleapis.com%2Fcss%3Ffamily%3DArchitects%2BDaughter;fillColor=#dae8fc;strokeColor=#6c8ebf;curved=0;shadow=1;entryX=0.302;entryY=0.01;entryDx=0;entryDy=0;entryPerimeter=0;" edge="1" parent="1" source="ItcVTix3tJ5PriOgSNzR-2" target="ItcVTix3tJ5PriOgSNzR-3">
          <mxGeometry relative="1" as="geometry">
            <mxPoint x="378" y="950" as="targetPoint" />
          </mxGeometry>
        </mxCell>
        <mxCell id="ItcVTix3tJ5PriOgSNzR-14" value="Identification" style="whiteSpace=wrap;html=1;fontSize=16;fontFamily=Times New Roman;fillColor=#dae8fc;strokeColor=#6c8ebf;rounded=1;hachureGap=4;shadow=1;align=left;spacing=37;spacingRight=0;spacingBottom=2;verticalAlign=middle;direction=west;rotation=270;flipV=1;flipH=1;fontStyle=1" vertex="1" parent="1">
          <mxGeometry x="64.34" y="84.35" width="160" height="57.99" as="geometry" />
        </mxCell>
        <mxCell id="ItcVTix3tJ5PriOgSNzR-15" value="Screening" style="whiteSpace=wrap;html=1;fontSize=16;fontFamily=Times New Roman;fillColor=#dae8fc;strokeColor=#6c8ebf;rounded=1;hachureGap=4;shadow=1;align=left;spacing=84;spacingRight=0;spacingBottom=2;verticalAlign=middle;direction=west;rotation=270;flipV=1;flipH=1;fontStyle=1" vertex="1" parent="1">
          <mxGeometry x="33.67" y="358.01" width="221.34" height="57.99" as="geometry" />
        </mxCell>
        <mxCell id="ItcVTix3tJ5PriOgSNzR-17" value="Eligibility" style="whiteSpace=wrap;html=1;fontSize=16;fontFamily=Times New Roman;fillColor=#dae8fc;strokeColor=#6c8ebf;rounded=1;hachureGap=4;shadow=1;align=left;spacing=62;spacingRight=0;spacingBottom=2;verticalAlign=middle;direction=west;rotation=270;flipV=1;flipH=1;fontStyle=1" vertex="1" parent="1">
          <mxGeometry x="45.83" y="669.85" width="197.01" height="57.99" as="geometry" />
        </mxCell>
        <mxCell id="ItcVTix3tJ5PriOgSNzR-18" value="Included" style="whiteSpace=wrap;html=1;fontSize=16;fontFamily=Times New Roman;fillColor=#dae8fc;strokeColor=#6c8ebf;rounded=1;hachureGap=4;shadow=1;align=left;spacing=62;spacingRight=0;spacingBottom=2;verticalAlign=middle;direction=west;rotation=270;flipV=1;flipH=1;fontStyle=1" vertex="1" parent="1">
          <mxGeometry x="45.83" y="920" width="197.01" height="57.99" as="geometry" />
        </mxCell>
      </root>
    </mxGraphModel>
  </diagram>
</mxfile>
